<svg width="126" height="100" viewBox="0 0 126 100" fill="none" xmlns="http://www.w3.org/2000/svg">
<path fill-rule="evenodd" clip-rule="evenodd" d="M126 0H0V100H126V0ZM6.5 5C6.5 3.61929 7.61929 2.5 9 2.5H11.5C12.8807 2.5 14 3.61929 14 5V12C14 13.3807 12.8807 14.5 11.5 14.5H9C7.61929 14.5 6.5 13.3807 6.5 12V5ZM2 16.5H124V83.5H2V16.5ZM30.5 2.5C29.1193 2.5 28 3.61929 28 5V12C28 13.3807 29.1193 14.5 30.5 14.5H33C34.3807 14.5 35.5 13.3807 35.5 12V5C35.5 3.61929 34.3807 2.5 33 2.5H30.5ZM49 5C49 3.61929 50.1193 2.5 51.5 2.5H54C55.3807 2.5 56.5 3.61929 56.5 5V12C56.5 13.3807 55.3807 14.5 54 14.5H51.5C50.1193 14.5 49 13.3807 49 12V5ZM72.5 2.5C71.1193 2.5 70 3.61929 70 5V12C70 13.3807 71.1193 14.5 72.5 14.5H75C76.3807 14.5 77.5 13.3807 77.5 12V5C77.5 3.61929 76.3807 2.5 75 2.5H72.5ZM91 5C91 3.61929 92.1193 2.5 93.5 2.5H96C97.3807 2.5 98.5 3.61929 98.5 5V12C98.5 13.3807 97.3807 14.5 96 14.5H93.5C92.1193 14.5 91 13.3807 91 12V5ZM114.5 2.5C113.119 2.5 112 3.61929 112 5V12C112 13.3807 113.119 14.5 114.5 14.5H117C118.381 14.5 119.5 13.3807 119.5 12V5C119.5 3.61929 118.381 2.5 117 2.5H114.5ZM6.5 88C6.5 86.6193 7.61929 85.5 9 85.5H11.5C12.8807 85.5 14 86.6193 14 88V95C14 96.3807 12.8807 97.5 11.5 97.5H9C7.61929 97.5 6.5 96.3807 6.5 95V88ZM30.5 85.5C29.1193 85.5 28 86.6193 28 88V95C28 96.3807 29.1193 97.5 30.5 97.5H33C34.3807 97.5 35.5 96.3807 35.5 95V88C35.5 86.6193 34.3807 85.5 33 85.5H30.5ZM49 88C49 86.6193 50.1193 85.5 51.5 85.5H54C55.3807 85.5 56.5 86.6193 56.5 88V95C56.5 96.3807 55.3807 97.5 54 97.5H51.5C50.1193 97.5 49 96.3807 49 95V88ZM72.5 85.5C71.1193 85.5 70 86.6193 70 88V95C70 96.3807 71.1193 97.5 72.5 97.5H75C76.3807 97.5 77.5 96.3807 77.5 95V88C77.5 86.6193 76.3807 85.5 75 85.5H72.5ZM91 88C91 86.6193 92.1193 85.5 93.5 85.5H96C97.3807 85.5 98.5 86.6193 98.5 88V95C98.5 96.3807 97.3807 97.5 96 97.5H93.5C92.1193 97.5 91 96.3807 91 95V88ZM114.5 85.5C113.119 85.5 112 86.6193 112 88V95C112 96.3807 113.119 97.5 114.5 97.5H117C118.381 97.5 119.5 96.3807 119.5 95V88C119.5 86.6193 118.381 85.5 117 85.5H114.5Z" fill="#523737" fill-opacity="0.76"/>
<path d="M39.639 35.44C39.7243 35.184 39.767 34.8427 39.767 34.416C39.767 33.7333 39.575 33.1787 39.191 32.752C38.8497 32.3253 38.295 31.856 37.527 31.344C36.887 30.8747 36.4177 30.4693 36.119 30.128C35.863 29.7867 35.799 29.3813 35.927 28.912C36.055 28.3147 36.375 27.9093 36.887 27.696C37.399 27.4827 38.2097 27.376 39.319 27.376H57.495C58.391 27.376 59.0737 27.5253 59.543 27.824C60.055 28.1227 60.311 28.5067 60.311 28.976C60.311 29.1893 60.247 29.4667 60.119 29.808C59.991 30.1067 59.799 30.384 59.543 30.64C59.3297 30.8533 59.1163 31.024 58.903 31.152C58.7323 31.2373 58.6043 31.3227 58.519 31.408C57.8363 31.792 57.2817 32.2187 56.855 32.688C56.4283 33.1573 56.0657 33.8827 55.767 34.864L49.495 57.008C48.215 61.5307 46.039 64.9013 42.967 67.12C39.895 69.296 35.9057 70.384 30.999 70.384C27.7137 70.384 24.919 69.9147 22.615 68.976C20.3537 67.9947 18.647 66.6933 17.495 65.072C16.343 63.4507 15.767 61.68 15.767 59.76C15.767 58.8213 15.895 57.904 16.151 57.008C16.7057 55.088 17.6443 53.6373 18.967 52.656C20.3323 51.6747 21.847 51.184 23.511 51.184C25.431 51.184 26.903 51.76 27.927 52.912C28.951 54.064 29.463 55.536 29.463 57.328C29.463 58.224 29.335 59.12 29.079 60.016C28.567 61.808 27.607 63.1307 26.199 63.984C26.8817 64.4107 27.671 64.624 28.567 64.624C29.463 64.624 30.2523 64.176 30.935 63.28C31.6177 62.384 32.1937 61.1253 32.663 59.504L39.639 35.44ZM90.0435 27.376C96.4435 27.376 101.265 28.6133 104.508 31.088C107.75 33.52 109.372 37.104 109.372 41.84C109.372 44.1867 108.945 46.896 108.092 49.968C106.684 54.9173 104.785 58.8427 102.396 61.744C100.006 64.6453 96.8488 66.7573 92.9235 68.08C89.0408 69.4027 84.0488 70.0427 77.9475 70L60.5395 69.936C59.6435 69.936 58.9608 69.7867 58.4915 69.488C57.9795 69.1893 57.7235 68.784 57.7235 68.272C57.7235 68.016 57.7875 67.7387 57.9155 67.44C58.0435 67.056 58.2355 66.7787 58.4915 66.608C58.7048 66.4373 59.0462 66.2027 59.5155 65.904C60.1982 65.52 60.7315 65.0933 61.1155 64.624C61.5422 64.1547 61.9048 63.408 62.2035 62.384L70.0115 34.864C70.1822 34.3093 70.2675 33.776 70.2675 33.264C70.2675 32.7947 70.1822 32.4107 70.0115 32.112C69.8835 31.7707 69.6915 31.3867 69.4355 30.96C69.0515 30.4053 68.8595 29.9573 68.8595 29.616C68.8595 29.488 68.9022 29.2533 68.9875 28.912C69.1582 28.3573 69.5208 27.9733 70.0755 27.76C70.6728 27.504 71.5688 27.376 72.7635 27.376H90.0435ZM91.7075 48.56C92.8168 44.5493 93.3715 41.392 93.3715 39.088C93.3715 36.8267 92.9022 35.2693 91.9635 34.416C91.0248 33.5627 89.6808 33.136 87.9315 33.136H86.5235L77.8835 64.24H79.4195C81.3822 64.24 83.0248 63.8347 84.3475 63.024C85.7128 62.1707 86.9715 60.6347 88.1235 58.416C89.2755 56.1547 90.4702 52.8693 91.7075 48.56Z" fill="#523737"/>
</svg>
